<svg width="16" height="16" viewBox="0 0 16 16" fill="none" xmlns="http://www.w3.org/2000/svg">
<path fill-rule="evenodd" clip-rule="evenodd" d="M6.45897 1.34765C6.7858 0.857412 7.30605 0.5 8 0.5C8.69395 0.5 9.2142 0.857412 9.54103 1.34765C9.85797 1.82307 10 2.42583 10 3C10 3.05779 9.99963 3.11596 9.99883 3.17439C10.0396 3.13251 10.0804 3.09112 10.1213 3.05025C10.5273 2.64425 11.054 2.31847 11.6142 2.20641C12.192 2.09086 12.8126 2.206 13.3033 2.6967C13.794 3.1874 13.9091 3.808 13.7936 4.38575C13.6815 4.94603 13.3557 5.47268 12.9497 5.87868C12.9089 5.91955 12.8675 5.96042 12.8256 6.00117C12.884 6.00037 12.9422 6 13 6C13.5742 6 14.1769 6.14203 14.6524 6.45897C15.1426 6.7858 15.5 7.30605 15.5 8C15.5 8.69395 15.1426 9.2142 14.6523 9.54103C14.1769 9.85797 13.5742 10 13 10C12.9422 10 12.884 9.99963 12.8256 9.99883C12.8675 10.0396 12.9089 10.0805 12.9498 10.1213C13.3558 10.5273 13.6816 11.054 13.7936 11.6143C13.9092 12.192 13.794 12.8126 13.3033 13.3033C12.8126 13.794 12.192 13.9091 11.6143 13.7936C11.054 13.6815 10.5273 13.3558 10.1213 12.9498C10.0805 12.9089 10.0396 12.8675 9.99883 12.8256C9.99963 12.884 10 12.9422 10 13C10 13.5742 9.85797 14.1769 9.54103 14.6524C9.2142 15.1426 8.69395 15.5 8 15.5C7.30605 15.5 6.7858 15.1426 6.45897 14.6523C6.14203 14.1769 6 13.5742 6 13C6 12.9422 6.00037 12.884 6.00117 12.8256C5.96042 12.8675 5.91956 12.9089 5.87869 12.9497C5.47269 13.3557 4.94605 13.6815 4.38576 13.7936C3.80801 13.9091 3.18741 13.794 2.69671 13.3033C2.20601 12.8126 2.09087 12.192 2.20642 11.6142C2.31848 11.054 2.64426 10.5273 3.05026 10.1213C3.09113 10.0804 3.13252 10.0396 3.17441 9.99883C3.11597 9.99963 3.0578 10 3 10C2.42583 10 1.82307 9.85797 1.34765 9.54103C0.857411 9.2142 0.5 8.69395 0.5 8C0.5 7.30605 0.857412 6.7858 1.34765 6.45897C1.82307 6.14203 2.42583 6 3 6C3.05779 6 3.11595 6.00037 3.17438 6.00117C3.1325 5.96041 3.0911 5.91955 3.05023 5.87868C2.64423 5.47268 2.31844 4.94603 2.20638 4.38574C2.09083 3.80799 2.20598 3.18739 2.69668 2.6967C3.18737 2.206 3.80797 2.09086 4.38572 2.20641C4.94601 2.31846 5.47266 2.64425 5.87866 3.05025C5.91953 3.09113 5.96041 3.13253 6.00117 3.17442C6.00037 3.11598 6 3.0578 6 3C6 2.42583 6.14203 1.82307 6.45897 1.34765ZM7.29102 1.90235C7.10797 2.17693 7 2.57417 7 3C7 3.73658 7.06716 4.40841 7.25204 4.88001C7.34244 5.11062 7.44965 5.26333 7.56271 5.35674C7.66708 5.44298 7.8012 5.5 8 5.5C8.19879 5.5 8.33292 5.44298 8.43729 5.35674C8.55035 5.26333 8.65755 5.11062 8.74796 4.88001C8.93283 4.40841 9 3.73658 9 3C9 2.57417 8.89203 2.17693 8.70897 1.90235C8.5358 1.64259 8.30605 1.5 8 1.5C7.69395 1.5 7.4642 1.64259 7.29102 1.90235ZM9.77008 6.23455L9.76589 6.23036C9.6267 6.09046 9.57261 5.95591 9.55984 5.82172C9.54595 5.67572 9.57812 5.49194 9.67727 5.26495C9.88001 4.80075 10.3076 4.2782 10.8284 3.75736C11.1295 3.45625 11.4868 3.25171 11.8104 3.18699C12.1165 3.12576 12.3798 3.1874 12.5962 3.40381C12.8126 3.62021 12.8742 3.8835 12.813 4.18963C12.7483 4.51323 12.5437 4.87046 12.2426 5.17157C11.7218 5.69241 11.1992 6.11998 10.735 6.32272C10.508 6.42186 10.3243 6.45403 10.1783 6.44015C10.0442 6.42739 9.90982 6.3734 9.77008 6.23455ZM6.22977 9.7653C6.23163 9.76716 6.23348 9.76902 6.23534 9.77087C6.37362 9.91032 6.42743 10.0445 6.44016 10.1783C6.45405 10.3243 6.42187 10.5081 6.32273 10.735C6.11999 11.1992 5.69242 11.7218 5.17158 12.2426C4.87048 12.5437 4.51324 12.7483 4.18964 12.813C3.88351 12.8742 3.62022 12.8126 3.40382 12.5962C3.18741 12.3798 3.12577 12.1165 3.187 11.8104C3.25172 11.4868 3.45626 11.1295 3.75737 10.8284C4.27821 10.3076 4.80076 9.88001 5.26496 9.67727C5.49195 9.57813 5.67574 9.54596 5.82173 9.55985C5.95573 9.57259 6.09009 9.62655 6.22977 9.7653ZM5.5 8C5.5 7.80121 5.44298 7.66708 5.35674 7.56271C5.26333 7.44965 5.11062 7.34245 4.88001 7.25204C4.40841 7.06717 3.73658 7 3 7C2.57417 7 2.17693 7.10797 1.90235 7.29103C1.64259 7.4642 1.5 7.69395 1.5 8C1.5 8.30605 1.64259 8.5358 1.90235 8.70897C2.17693 8.89203 2.57417 9 3 9C3.73658 9 4.40841 8.93284 4.88001 8.74796C5.11062 8.65756 5.26333 8.55035 5.35674 8.43729C5.44298 8.33292 5.5 8.1988 5.5 8ZM8 6.5C7.17157 6.5 6.5 7.17157 6.5 8C6.5 8.41266 6.66664 8.7864 6.9363 9.05761L6.93935 9.06065L6.94268 9.06399C7.21386 9.33348 7.58748 9.5 8 9.5C8.82843 9.5 9.5 8.82843 9.5 8C9.5 7.58682 9.33294 7.21266 9.06269 6.94137L9.06065 6.93934L9.05814 6.93683C8.7869 6.66686 8.41293 6.5 8 6.5ZM13 7C13.4258 7 13.8231 7.10797 14.0976 7.29103C14.3574 7.4642 14.5 7.69395 14.5 8C14.5 8.30605 14.3574 8.5358 14.0976 8.70897C13.8231 8.89203 13.4258 9 13 9C12.2634 9 11.5916 8.93283 11.12 8.74796C10.8894 8.65755 10.7367 8.55035 10.6433 8.43729C10.557 8.33292 10.5 8.19879 10.5 8C10.5 7.80121 10.557 7.66708 10.6433 7.56271C10.7367 7.44965 10.8894 7.34244 11.12 7.25204C11.5916 7.06717 12.2634 7 13 7ZM12.813 11.8104C12.7483 11.4868 12.5438 11.1295 12.2427 10.8284C11.7218 10.3076 11.1993 9.88002 10.7351 9.67728C10.5081 9.57814 10.3243 9.54597 10.1783 9.55986C10.0435 9.57268 9.90836 9.6272 9.76779 9.76777C9.62722 9.90834 9.5727 10.0435 9.55988 10.1783C9.54599 10.3243 9.57816 10.5081 9.6773 10.7351C9.88004 11.1993 10.3076 11.7218 10.8285 12.2426C11.1296 12.5438 11.4868 12.7483 11.8104 12.813C12.1165 12.8742 12.3798 12.8126 12.5962 12.5962C12.8126 12.3798 12.8743 12.1165 12.813 11.8104ZM9 13C9 13.4258 8.89203 13.8231 8.70897 14.0976C8.5358 14.3574 8.30605 14.5 8 14.5C7.69395 14.5 7.4642 14.3574 7.29103 14.0976C7.10797 13.8231 7 13.4258 7 13C7 12.2634 7.06717 11.5916 7.25204 11.12C7.34245 10.8894 7.44965 10.7367 7.56271 10.6433C7.66708 10.557 7.80121 10.5 8 10.5C8.1988 10.5 8.33292 10.557 8.43729 10.6433C8.55035 10.7367 8.65756 10.8894 8.74796 11.12C8.93283 11.5916 9 12.2634 9 13ZM3.18697 4.18963C3.25168 4.51322 3.45623 4.87046 3.75734 5.17157C4.27817 5.69241 4.80073 6.11998 5.26492 6.32272C5.49192 6.42186 5.6757 6.45403 5.8217 6.44014C5.95648 6.42732 6.09164 6.3728 6.23221 6.23223C6.37278 6.09166 6.4273 5.9565 6.44012 5.82172C6.45401 5.67572 6.42184 5.49194 6.3227 5.26495C6.11995 4.80075 5.69239 4.2782 5.17155 3.75736C4.87044 3.45625 4.5132 3.25171 4.18961 3.18699C3.88348 3.12576 3.62019 3.1874 3.40378 3.4038C3.18737 3.62021 3.12574 3.8835 3.18697 4.18963Z" fill="#72757C"/>
</svg>
